<svg width="150" height="150" viewBox="0 0 150 150" fill="none" xmlns="http://www.w3.org/2000/svg">
<path d="M0 12C0 5.37258 5.37258 0 12 0H138C144.627 0 150 5.37258 150 12V138C150 144.627 144.627 150 138 150H12C5.37258 150 0 144.627 0 138V12Z" fill="black"/>
<path d="M38.4853 109.196C33.799 104.51 33.799 96.9117 38.4853 92.2254L92.2254 38.4853C96.9117 33.799 104.51 33.799 109.196 38.4853L112.024 41.3137C116.711 46 116.711 53.598 112.024 58.2843L58.2843 112.024C53.598 116.711 46 116.711 41.3137 112.024L38.4853 109.196Z" fill="white"/>
</svg>
